<svg xmlns="http://www.w3.org/2000/svg" viewBox="0 0 512 512" width="512" height="512">
  <path d="M480 128H32v256h448V128zM448 352H64V160h384v192z" fill="#F77F00"/>
  <path d="M464 128H48v256h416V128zM432 352H80V160h352v192z" fill="#C75100"/>
  <path d="M384 112H128v288h256V112zm-16 272H144V144h224v240z" fill="#FCC43B"/>
  <path d="M320 80H192v352h128V80zm-16 320H208V112h96v288z" fill="#FFF"/>
  <circle cx="256" cy="256" r="64" fill="#FFF"/>
  <path d="M256 192c35.29 0 64 28.71 64 64s-28.71 64-64 64-64-28.71-64-64 28.71-64 64-64zm0 96c17.67 0 32-14.33 32-32s-14.33-32-32-32-32 14.33-32 32 14.33 32 32 32z" fill="#F77F00"/>
</svg>